<svg xmlns="http://www.w3.org/2000/svg" viewBox="0 0 905 905">
  <path
    d="M767 17c4.152 1.718 5.971 3.778 7.852 7.84C779.019 35.61 777.559 46.587 773 57c-2.412 4.94-5.04 9.765-7.66 14.598A96.53 96.53 0 00759 86l-.86 2.313c-3.187 8.9-3.31 17.699-3.421 27.07l-.055 3.74c-.049 3.402-.094 6.804-.136 10.206-.047 3.661-.099 7.322-.15 10.983-.098 7.14-.191 14.28-.282 21.419-.074 5.805-.151 11.61-.23 17.415-.479 35.745-.899 71.49-1.132 107.236l-.045 6.795c-.086 12.883-.171 25.765-.225 38.648-.112 26.687-.334 53.343-1.417 80.01l-.126 3.126c-.91 21.99-3.158 43.475-6.921 65.164l-.38 2.198c-1.412 8.062-3.112 15.882-5.62 23.677-.46 1.609-.914 3.22-1.36 4.832-7.18 25.778-15.612 50.67-28.543 74.17a436.069 436.069 0 00-2.75 5.103c-12.129 22.747-26.987 43.226-43.706 62.782-3.267 3.83-6.422 7.749-9.57 11.676-2.235 2.63-4.609 5.017-7.071 7.437a1981.643 1981.643 0 00-3.602 3.672C633.935 683.257 626.484 690.546 618 697l-1.844 1.42c-7.376 5.681-14.78 11.189-22.719 16.068-2.347 1.456-4.606 2.999-6.875 4.574-4.226 2.83-8.632 5.09-13.207 7.305a296.641 296.641 0 00-7.117 3.578c-9.194 4.76-18.455 8.678-28.238 12.055l-2.555.888c-2.729.943-5.46 1.874-8.195 2.8l-2.542.865c-22.999 7.654-46.793 9.846-70.896 9.76l-2.435-.008c-13.33-.073-26.183-.783-39.252-3.617l-3.169-.676c-7.764-1.685-15.378-3.614-22.956-6.012l-2.98-.89C364.244 739.255 346.27 729.311 331 717c-.521-.414-1.042-.829-1.58-1.255-6.058-4.827-11.538-9.707-16.42-15.745l-2-1-.41 3.934c-.528 4.738-1.237 9.428-2.028 14.129l-.369 2.275a143.947 143.947 0 01-2.668 12.565c-.578 2.308-1.077 4.625-1.568 6.952-2.06 9.667-4.397 19.137-7.52 28.52l-.85 2.571c-1.802 5.255-3.969 10.157-6.587 15.054l-1.754 3.316C277.768 805.327 265.13 823.508 250 836h-2l-1 3a111.32 111.32 0 01-6.188 5.063l-1.878 1.448c-4.476 3.43-8.997 6.8-13.559 10.114l-1.755 1.29c-2.799 2.002-5.17 3.597-8.62 4.085v2c-.895.508-1.79 1.016-2.71 1.54-5.526 3.142-11.044 6.285-16.478 9.585-5.182 3.128-10.474 6.023-15.812 8.875l-1.984 1.06c-3.657 1.952-7.32 3.893-10.993 5.815a224.147 224.147 0 00-6.984 3.813c-6.723 3.732-12.274 4.287-19.789 2.75-6.046-3.863-9.04-9.024-10.777-15.891-1.228-6.617-.965-11.563 2.066-17.625 4.06-5.342 10.085-8.757 15.711-12.235l2.18-1.376 2.086-1.3 1.883-1.172C155 846 155 846 157 846v-2c2.082-1.473 2.082-1.473 4.812-3.063l2.708-1.597C167 838 167 838 170 837v-2a93.872 93.872 0 015.375-4.125l3.023-2.195C181 827 181 827 183 827v-2c4.47-4 4.47-4 7-4v-2c1.434-1.41 1.434-1.41 3.437-3.063 9.437-8.079 17.14-17.032 24.563-26.937l1.366-1.82c4.91-6.59 9.481-13.225 13.267-20.54.933-1.802 1.91-3.583 2.922-5.343 3.311-5.766 5.674-11.394 7.586-17.766C244 741 244 741 246 738c3.156-9.337 5.185-18.977 7.125-28.625l.762-3.695c1.16-5.689 2.245-11.371 3.152-17.106 2.403-14.75 7.962-30.029 19.961-39.574 8.397-5.34 17.717-6.395 27.395-4.246 5.843 1.703 10.723 3.526 15.605 7.246l3.254 1.832c3.618 2.042 6.965 4.395 10.308 6.856 15.57 11.247 31.434 20.26 49.617 26.668 1.593.563 3.178 1.145 4.762 1.73 39.427 14.02 87.633 15.04 127.044.649 1.921-.7 3.856-1.362 5.792-2.02C547.88 678.402 570.817 663.89 593 646l2.582-2.004c2.652-2.19 5.01-4.539 7.418-6.996 1.15-1.13 2.3-2.257 3.453-3.383 7.33-7.203 14.29-14.442 20.547-22.617l1.36-1.735c7.596-9.686 14.243-19.734 20.496-30.33 1.462-2.473 2.96-4.921 4.456-7.372 6.255-10.519 11.533-21.408 16.7-32.488.843-1.77 1.735-3.518 2.636-5.259 1.431-2.981 2.378-5.89 3.29-9.066 1.151-3.887 2.366-7.605 4-11.313 3.083-7.397 4.658-15.339 6.502-23.116a302.133 302.133 0 011.552-6.09C696.36 450.88 698.146 416.214 699 382l.06-2.375c.713-29.04 1.122-58.083 1.501-87.128.396-30.219.396-30.219.724-41.794l.071-2.51.139-4.87c1.05-37.087.59-74.224.505-111.323l-4.746 7.11-1.342 2.009c-30.39 45.55-37.419 95.144-42.148 148.544-2.568 28.79-8.486 60.014-31.514 79.618-12.777 9.76-30.879 11.393-46.38 9.452-4.189-.65-8.338-1.468-12.495-2.297-2.86-.525-5.731-.943-8.61-1.366-5.403-.816-10.702-1.883-16.034-3.075-60.883-13.581-60.883-13.581-120.797-2.3-2.352 1.046-4.426 1.802-6.934 2.305v2l-2.188 1.188c-5.09 3.28-7.849 8.16-9.812 13.812-1.314 6.696-1.595 11.97 2 18 4.655 6.402 9.375 9.708 17 12.063l3.062.972c10.36 2.76 20.805 3.256 31.47 3.274 1.365.01 2.731.023 4.097.037 5.72.054 11.438.085 17.157.11 42.587.204 42.587.204 59.839 6.731l2.496.913c6.816 2.62 12.387 6.065 17.879 10.9l2.633 2.191c11.64 9.99 19.842 22.148 24.367 36.809l1.133 3.375c7.68 25.78 2.9 55.047-9.633 78.5-4.246 7.23-8.863 14.894-14.5 21.125h-2l-.8 1.777c-7.306 13.54-30.08 27.487-44.2 32.223h-3v2a4545.249 4545.249 0 01-11.75 3.813l-3.309 1.08c-21.924 7.07-43.453 10.487-66.441 10.544l-2.403.019c-10.064.05-19.594-.758-29.467-2.736a147.11 147.11 0 00-9.38-1.533C372.259 629.05 359.23 624.817 347 620c-4.33-1.674-8.663-3.342-13-5l-3.445-1.324c-15.8-5.885-30.703-8.032-47.555-6.676l-1 1c-1.578.321-3.162.607-4.75.875-4.055.775-6.783 1.844-10.25 4.125l-3.5 1.063c-8.558 3.048-16.291 10.54-22.5 16.937l-1.773 1.738c-3.759 3.694-7.257 7.53-10.649 11.563-2.341 2.52-4.21 3.622-7.578 4.324-8.464-.268-16.336-9.509-21.824-15.23-25.543-28.11-42.172-64.331-48.535-101.657-.34-1.985-.692-3.97-1.123-5.937-1.554-7.11-2.172-14.17-2.643-21.426l-.253-3.85C145.46 481.534 145.6 462.883 148 444l.407-3.2c2.335-17.867 4.868-36.134 11.558-52.98 1.67-4.548 2.925-9.224 4.197-13.897 1.151-4.09 2.558-7.303 4.838-10.923a167.895 167.895 0 002.375-6.125c11.75-31.145 31.216-59.061 53.508-83.535a293.303 293.303 0 004.172-4.711c3.717-4.29 7.515-8.195 11.855-11.856 3.147-2.67 6.168-5.478 9.207-8.27C252 247 252 247 254 247v-2c2.02-1.664 2.02-1.664 4.812-3.625l3.06-2.164L265 237c1.793-1.332 3.584-2.665 5.375-4 5.997-4.36 12.263-8.201 18.625-12l2.895-1.777c7.8-4.706 15.908-8.564 24.184-12.34a329.263 329.263 0 004.855-2.29c8.116-3.854 16.558-6.74 25.066-9.593l3.137-1.059c7.227-2.325 14.57-4.2 21.925-6.066l3.01-.77c9.566-2.383 19.123-4.124 28.967-4.761 2.515-.292 4.816-.76 7.277-1.32 6.499-1.331 13.042-1.529 19.65-1.8 17.183-.72 34.325-1.913 51.471-3.224l3.343-.254c11.622-.885 23.24-1.814 34.853-2.809l2.837-.24c8.372-.728 16.688-1.65 24.842-3.76 2.715-.69 5.005-1.113 7.75-1.375 3.421-.488 5.801-1.28 8.887-2.742 2.653-1.06 5.333-1.669 8.113-2.32 4.349-1.029 8.006-2.327 11.938-4.5h2c-1.314 4.994-3.674 8.886-6.36 13.227-1.695 2.866-3.178 5.78-4.64 8.773-1.832 3.74-3.748 7.333-5.938 10.875-2.448 3.974-4.57 8.063-6.625 12.25-.599 1.196-1.2 2.391-1.8 3.586a164.093 164.093 0 00-2.805 5.89c-1.445 2.87-2.621 4.95-5.723 6.1-9.34 1.587-18.77 2.077-28.214 2.654-3.262.2-6.522.41-9.783.622-9.265.602-18.531 1.192-27.799 1.765-24.601 1.526-48.936 3.053-73.18 7.688-4.533.825-9.089 1.474-13.65 2.119-2.418.196-2.418.196-3.483 1.451-2.581.471-5.16.901-7.75 1.313-10.263 1.724-19.933 4.57-29.547 8.57-2.02.835-4.054 1.637-6.094 2.422-15.585 5.998-29.72 13.688-43.754 22.718l-2.98 1.914-2.633 1.715C301 275 301 275 298 276v2c-1.434 1.227-1.434 1.227-3.438 2.625-4.171 3.004-7.918 6.337-11.68 9.836C281 292 281 292 279 292l-1 3-2.125 1.688c-3.011 2.421-5.306 4.996-7.8 7.93-1.94 2.228-3.95 4.373-5.983 6.516-6.425 6.82-11.865 14.101-17.092 21.866l-1.164 1.71c-10.406 15.378-18.681 31.69-24.688 49.25C218 387 218 387 216 390c-9.644 27.069-14.579 55.588-14.391 84.27a730.7 730.7 0 01-.02 8.783c-.018 18.085 1.76 36.741 8.532 53.69 1.19 3.056 2.24 6.158 3.316 9.257 2.736 7.665 5.837 14.354 10.563 21l1.875 2.875c1.99 2.349 1.99 2.349 5 2.875 5.507-1.322 7.753-5.614 10.695-10.195A293.652 293.652 0 00246 555c3.24-5.685 6.499-11.358 9.812-17l1.502-2.617c5.178-8.769 11.523-16.6 21.686-19.383 16.28-2.206 31.909 1.668 46.496 8.816 2.625 1.241 5.264 2.224 8.004 3.184a112.144 112.144 0 0110.684 4.379C361.687 540.4 380.169 545.25 399 549l2.216.445c22.86 4.38 50.955 3.937 70.784-9.445.64-.4 1.281-.8 1.941-1.21 4.73-3.343 7.271-8.426 9.059-13.79.833-5.281.822-10.124-1.688-14.938-4.75-6.29-10.23-8.96-17.787-10.599-4.717-.62-9.34-.546-14.091-.49l-6.354.037c-3.297.024-6.594.052-9.89.086-37.707.363-76.924-3.155-105.69-30.284-6.744-6.98-12.655-14.885-16.5-23.812l-.943-2.124c-6.6-15.546-9.583-34.036-8.057-50.876l.204-2.364C304.369 367.016 313.287 347.28 328 330l2.016-2.574c13.793-16.861 36.44-28.637 57.011-34.567 1.99-.575 3.967-1.2 5.926-1.87 4.372-1.419 8.83-2.327 13.317-3.305 2.627-.41 2.627-.41 3.73-1.684 2.2-.386 4.411-.707 6.625-1l3.664-.5c25.283-2.908 51.412-2.964 76.586.75l2.13.31c8.938 1.334 17.644 3.242 26.384 5.512 5.182 1.332 10.404 2.44 15.642 3.526 3.6.772 6.75 1.609 9.969 3.402 7.065 2.193 14.98 3.918 21.875.375 5.672-4.31 7.57-8.738 8.54-15.688l.304-2.093c.316-2.196.612-4.395.906-6.594a2153.25 2153.25 0 002.9-20.898c.85-6.187 1.816-12.189 3.412-18.227a8089.1 8089.1 0 001.07-4.086L591 227l1.312-5.75c2.232-8.95 5.53-17.595 8.688-26.25l1.062-2.945C608.876 174.107 619.03 156.689 630 141l1.192-1.71c6.69-9.58 13.417-19.108 21.808-27.29a813.915 813.915 0 003.812-4.375c3.132-3.546 6.383-6.695 9.993-9.746 2.605-2.23 5.113-4.553 7.632-6.879C687.612 79 687.612 79 691 79v-2c1.871-1.516 1.871-1.516 4.437-3.25l2.747-1.863L701 70l2.598-1.793C709.743 64 709.743 64 712 64v-2a114.862 114.862 0 016.312-4.125c22.258-13.74 22.258-13.74 40.938-31.688 1.453-1.832 1.453-1.832 2.75-3.187h2l.937-2.438C766 18 766 18 767 17z"
    fill="#275728" />
  <path d="M306 370c1.417 4.25.193 6.719-1 11h2l-1 4h-2l-1 24h-1c-1.013-28.973-1.013-28.973 4-39z" fill="#275728" />
  <path
    d="M494 697l-2.809.621-3.628.817-3.622.808c-2.811.455-2.811.455-3.941 1.754-1.804.287-3.62.505-5.438.688l-2.996.324C469 702 469 702 467 700c2.52-.481 5.041-.96 7.563-1.438l2.134-.408c13.45-2.541 13.45-2.541 17.303-1.154z"
    fill="#275728" />
  <path d="M339 319l1 3c-7.114 7.667-7.114 7.667-12 9 2.983-5.012 6.44-8.387 11-12z" fill="#275728" />
  <path d="M187 822l3 1c-3.73 3.996-6.796 6.99-12 9l-2-1c4.75-4 4.75-4 7-4v-2c1.813-1.688 1.813-1.688 4-3z"
    fill="#275728" />
  <path d="M674 91l1 3-8 8-2-2 9-9z" fill="#275728" />
  <path d="M757 29l2 1-8 8-3-1 9-8z" fill="#275728" />
  <path d="M628 144l2 1c-1.5 3.114-3.082 6.122-5 9h-2c.615-3.995 2.706-6.745 5-10z" fill="#275728" />
  <path d="M733 48l3 1c-3.08 3.672-5.248 4.568-10 5 2.168-2.276 4.327-4.33 7-6z" fill="#275728" />
  <path d="M538 682v2c-2.25 1.75-2.25 1.75-5 3-2.313-.813-2.313-.813-4-2 6.75-3 6.75-3 9-3z" fill="#275728" />
  <path d="M710 64v3c-2 1.688-2 1.688-4 3l-2-2 6-4z" fill="#275728" />
</svg>
