<?xml version="1.0" encoding="UTF-8"?>
<svg version="1.1" xmlns="http://www.w3.org/2000/svg" width="905" height="905" viewBox="0 0 905 905">
<path d="M0 0 C4.1524291 1.71824653 5.97148163 3.77783417 7.8515625 7.83984375 C12.01920252 18.60949297 10.5588303 29.58656139 6 40 C3.58813451 44.94081183 0.9594316 49.76490944 -1.66015625 54.59765625 C-4.17769054 59.2688509 -6.26666563 63.98439415 -8 69 C-8.42539063 70.1446875 -8.42539063 70.1446875 -8.859375 71.3125 C-12.04691556 80.21355665 -12.17058992 89.01177096 -12.28125 98.38354492 C-12.29931953 99.61734076 -12.31738907 100.85113659 -12.33600616 102.12232018 C-12.38480931 105.52450722 -12.42958304 108.92670108 -12.47242165 112.32896543 C-12.51935069 115.99009713 -12.57104368 119.65116243 -12.62194824 123.3122406 C-12.72029164 130.45167711 -12.81322653 137.59117495 -12.90423822 144.7307083 C-12.97836915 150.53597627 -13.05502617 156.34120655 -13.13305664 162.14642334 C-13.61254677 197.89098084 -14.03298121 233.63522975 -14.26639557 269.38231587 C-14.28121712 271.64731879 -14.29630776 273.91231977 -14.3114624 276.17732048 C-14.39736013 289.05983325 -14.48229977 301.94235019 -14.53613281 314.82504272 C-14.64768386 341.51180217 -14.86994186 368.16823004 -15.953125 394.8359375 C-15.99478287 395.867365 -16.03644073 396.8987925 -16.07936096 397.96147537 C-16.98906182 419.95068381 -19.23674348 441.43599364 -23 463.125 C-23.12556274 463.85041992 -23.25112549 464.57583984 -23.38049316 465.32324219 C-24.79245043 473.38525574 -26.49181214 481.20455213 -29 489 C-29.46070381 490.6085257 -29.91371858 492.21927172 -30.359375 493.83203125 C-37.53930676 519.61030239 -45.97184947 544.50151422 -58.90283203 568.00244141 C-59.83302773 569.69600197 -60.7447423 571.39969297 -61.65234375 573.10546875 C-73.78181866 595.85243415 -88.64043766 616.3311571 -105.359375 635.88671875 C-108.62598773 639.71649934 -111.78093446 643.63553804 -114.9296875 647.5625 C-117.16442673 650.19358921 -119.53761991 652.58007474 -122 655 C-123.20218214 656.22232663 -124.40255695 657.44643224 -125.6015625 658.671875 C-133.06453218 666.2571277 -140.51569708 673.54554375 -149 680 C-149.6084375 680.46889648 -150.216875 680.93779297 -150.84375 681.42089844 C-158.22033432 687.10101243 -165.62330157 692.60898222 -173.5625 697.48828125 C-175.90981368 698.94406714 -178.16944151 700.48700937 -180.4375 702.0625 C-184.66421885 704.89275874 -189.06977483 707.15228642 -193.64453125 709.3671875 C-196.0370912 710.5314367 -198.40228213 711.71790153 -200.76171875 712.9453125 C-209.95647203 717.70440018 -219.21726468 721.62255142 -229 725 C-230.26481201 725.43940918 -230.26481201 725.43940918 -231.55517578 725.88769531 C-234.28360762 726.83057659 -237.01571005 727.76175138 -239.75 728.6875 C-240.58877686 728.97310791 -241.42755371 729.25871582 -242.29174805 729.55297852 C-265.29085152 737.20739216 -289.08453853 739.39883668 -313.1875 739.3125 C-313.99129089 739.30995209 -314.79508179 739.30740417 -315.62322998 739.30477905 C-328.95346578 739.23185878 -341.80641835 738.52243263 -354.875 735.6875 C-355.92075195 735.46457275 -356.96650391 735.24164551 -358.04394531 735.01196289 C-365.80813123 733.3271562 -373.42219176 731.398165 -381 729 C-381.98355469 728.70609375 -382.96710938 728.4121875 -383.98046875 728.109375 C-402.75642483 722.25584048 -420.72869908 712.3122277 -436 700 C-436.52110352 699.58572754 -437.04220703 699.17145508 -437.57910156 698.74462891 C-443.6377203 693.9178683 -449.1184745 689.03767627 -454 683 C-454.66 682.67 -455.32 682.34 -456 682 C-456.20302734 683.94712891 -456.20302734 683.94712891 -456.41015625 685.93359375 C-456.93764015 690.67167845 -457.64665573 695.36204608 -458.4375 700.0625 C-458.55931641 700.81337891 -458.68113281 701.56425781 -458.80664062 702.33789062 C-459.51519771 706.58556186 -460.39307441 710.73531913 -461.4753418 714.90258789 C-462.05266734 717.21054681 -462.55243775 719.52754423 -463.04296875 721.85546875 C-465.10225765 731.52225826 -467.43973108 740.99156273 -470.5625 750.375 C-470.98341919 751.64766724 -470.98341919 751.64766724 -471.4128418 752.94604492 C-473.21518405 758.20135055 -475.38154436 763.10308074 -478 768 C-478.57878906 769.09441406 -479.15757812 770.18882812 -479.75390625 771.31640625 C-489.23168914 788.32728656 -501.87041762 806.50839609 -517 819 C-517.66 819 -518.32 819 -519 819 C-519.33 819.99 -519.66 820.98 -520 822 C-522.02587627 823.78265247 -524.04487519 825.43168319 -526.1875 827.0625 C-526.80737793 827.54058105 -527.42725586 828.01866211 -528.06591797 828.51123047 C-532.5420039 831.9407536 -537.06327857 835.31031537 -541.625 838.625 C-542.20403076 839.05047119 -542.78306152 839.47594238 -543.37963867 839.91430664 C-546.17873105 841.91695284 -548.5499389 843.51194258 -552 844 C-552 844.66 -552 845.32 -552 846 C-552.89460938 846.50789062 -553.78921875 847.01578125 -554.7109375 847.5390625 C-560.23561163 850.68221321 -565.75449881 853.8248248 -571.1875 857.125 C-576.37008389 860.25299966 -581.66156164 863.14759911 -587 866 C-587.65484375 866.34998047 -588.3096875 866.69996094 -588.984375 867.06054688 C-592.64135332 869.01249242 -596.30388598 870.95274397 -599.9765625 872.875 C-602.33186776 874.10899179 -604.64981928 875.37034555 -606.9609375 876.6875 C-613.68358879 880.41994992 -619.23507751 880.97464324 -626.75 879.4375 C-632.79569271 875.5749741 -635.78979293 870.41384229 -637.52734375 863.546875 C-638.75536182 856.92978589 -638.49191024 851.98382047 -635.4609375 845.921875 C-631.40049509 840.58033043 -625.37567094 837.16490649 -619.75 833.6875 C-619.03070312 833.23310547 -618.31140625 832.77871094 -617.5703125 832.31054688 C-616.53777344 831.66762695 -616.53777344 831.66762695 -615.484375 831.01171875 C-614.55189941 830.43103638 -614.55189941 830.43103638 -613.60058594 829.83862305 C-612 829 -612 829 -610 829 C-610 828.34 -610 827.68 -610 827 C-607.91796875 825.52734375 -607.91796875 825.52734375 -605.1875 823.9375 C-603.84751953 823.14666016 -603.84751953 823.14666016 -602.48046875 822.33984375 C-600 821 -600 821 -597 820 C-597 819.34 -597 818.68 -597 818 C-595.26451831 816.55473264 -593.46024037 815.1912778 -591.625 813.875 C-590.62726563 813.15054688 -589.62953125 812.42609375 -588.6015625 811.6796875 C-586 810 -586 810 -584 810 C-584 809.34 -584 808.68 -584 808 C-579.52941176 804 -579.52941176 804 -577 804 C-577 803.34 -577 802.68 -577 802 C-575.56640625 800.58984375 -575.56640625 800.58984375 -573.5625 798.9375 C-564.12552569 790.85812551 -556.4231645 781.90454741 -549 772 C-548.32372559 771.09894531 -548.32372559 771.09894531 -547.63378906 770.1796875 C-542.72416087 763.59073115 -538.15292413 756.95543815 -534.3671875 749.640625 C-533.43377171 747.83779907 -532.45746708 746.05670156 -531.4453125 744.296875 C-528.1339633 738.53084405 -525.77104255 732.90347517 -523.859375 726.53125 C-523 724 -523 724 -521 721 C-517.84373437 711.66278102 -515.81492022 702.02328047 -513.875 692.375 C-513.62363281 691.15554688 -513.37226562 689.93609375 -513.11328125 688.6796875 C-511.95248862 682.99119586 -510.86849782 677.30879826 -509.9609375 671.57421875 C-507.55829491 656.82459469 -501.99879789 641.54500996 -490 632 C-481.60317527 626.66079906 -472.28263198 625.60466286 -462.60546875 627.75390625 C-456.76208982 629.45683382 -451.88212491 631.28028579 -447 635 C-445.92621094 635.60457031 -444.85242188 636.20914063 -443.74609375 636.83203125 C-440.12775419 638.87418588 -436.78093505 641.22700751 -433.4375 643.6875 C-417.8688608 654.93546556 -402.00400713 663.94735095 -383.82080078 670.35644531 C-382.22848925 670.9192414 -380.64291377 671.50102254 -379.05859375 672.0859375 C-339.63193439 686.10679787 -291.42565511 687.12660139 -252.01513672 672.73486328 C-250.09402427 672.03428799 -248.15854579 671.37348663 -246.22265625 670.71484375 C-219.1211525 661.40150931 -196.18247286 646.89096177 -174 629 C-173.14792969 628.33871094 -172.29585937 627.67742188 -171.41796875 626.99609375 C-168.7656125 624.80650725 -166.40717519 622.45702793 -164 620 C-162.85082276 618.8704958 -161.69963385 617.74303612 -160.546875 616.6171875 C-153.21638762 609.41356839 -146.2573934 602.17515845 -140 594 C-139.55092285 593.42733398 -139.1018457 592.85466797 -138.63916016 592.26464844 C-131.04443935 582.57928877 -124.39711409 572.53057469 -118.14404297 561.93408203 C-116.68204065 559.46246821 -115.18317048 557.01384564 -113.6875 554.5625 C-107.43334508 544.04414854 -102.15492543 533.15531152 -96.98706055 522.07470703 C-96.14475545 520.30426214 -95.25306257 518.55745497 -94.3515625 516.81640625 C-92.92075474 513.83486754 -91.97407549 510.926821 -91.0625 507.75 C-89.91092974 503.86345038 -88.6958238 500.14540846 -87.0625 496.4375 C-83.97906637 489.0396968 -82.40354068 481.0982881 -80.55957031 473.32104492 C-80.06855236 471.28434872 -79.54109176 469.25651003 -79.0078125 467.23046875 C-70.64146386 433.88185275 -68.85352672 399.21541139 -68 365 C-67.97066376 363.82416351 -67.97066376 363.82416351 -67.94073486 362.62457275 C-67.22740991 333.58550418 -66.81830695 304.54164568 -66.43850708 275.4967041 C-66.04312874 245.27838851 -66.04312874 245.27838851 -65.71484375 233.703125 C-65.69144424 232.87466568 -65.66804474 232.04620636 -65.64393616 231.19264221 C-65.59773559 229.5694354 -65.55145721 227.94623081 -65.50509644 226.32302856 C-64.45418367 189.2355341 -64.91591181 152.09871969 -65 115 C-66.58249134 117.36948554 -68.16444227 119.73932895 -69.74609375 122.109375 C-70.18900757 122.77243652 -70.63192139 123.43549805 -71.08825684 124.11865234 C-101.47839096 169.66892234 -108.5067881 219.2629861 -113.23583984 272.66308594 C-115.80446924 301.45289555 -121.72249056 332.67674872 -144.75 352.28125 C-157.52656393 362.04112523 -175.62870878 363.67371046 -191.12988281 361.73339844 C-195.31856908 361.0835932 -199.46779427 360.26474923 -203.62451172 359.43554688 C-206.48564772 358.91095627 -209.3563855 358.49259573 -212.234375 358.0703125 C-217.63779293 357.25415909 -222.93733688 356.18728957 -228.26855469 354.99462891 C-289.15191839 341.4140163 -289.15191839 341.4140163 -349.06640625 352.6953125 C-351.41752332 353.74094912 -353.49183976 354.49714147 -356 355 C-356 355.66 -356 356.32 -356 357 C-356.721875 357.391875 -357.44375 357.78375 -358.1875 358.1875 C-363.2773474 361.46762388 -366.0369219 366.34768893 -368 372 C-369.31351697 378.69597371 -369.5945723 383.97039485 -366 390 C-361.34547346 396.40164108 -356.62469175 399.70837642 -349 402.0625 C-347.989375 402.38347656 -346.97875 402.70445312 -345.9375 403.03515625 C-335.57807909 405.79424048 -325.13312704 406.29058017 -314.46875 406.30859375 C-313.102732 406.31974759 -311.73672371 406.33215184 -310.37072754 406.34571838 C-304.65186131 406.40018518 -298.93293114 406.43148585 -293.21386719 406.45629883 C-250.62692953 406.65984515 -250.62692953 406.65984515 -233.375 413.1875 C-232.13967529 413.63923584 -232.13967529 413.63923584 -230.87939453 414.10009766 C-224.06336222 416.72019932 -218.49189373 420.16533289 -213 425 C-212.13117188 425.72316406 -211.26234375 426.44632812 -210.3671875 427.19140625 C-198.72779027 437.18044119 -190.52545199 449.33903156 -186 464 C-185.43925781 465.670625 -185.43925781 465.670625 -184.8671875 467.375 C-177.18672345 493.15557864 -181.96771241 522.4222946 -194.5 545.875 C-198.74573189 553.10495238 -203.36334028 560.7691141 -209 567 C-209.66 567 -210.32 567 -211 567 C-211.26425781 567.58652344 -211.52851562 568.17304687 -211.80078125 568.77734375 C-219.10643506 582.31779007 -241.88013039 596.2639604 -256 601 C-256.99 601 -257.98 601 -259 601 C-259 601.66 -259 602.32 -259 603 C-262.91453958 604.27744778 -266.83200421 605.54569615 -270.75 606.8125 C-272.38775391 607.34713867 -272.38775391 607.34713867 -274.05859375 607.89257812 C-295.98286465 614.96283117 -317.51248031 618.38025539 -340.5 618.4375 C-341.29307556 618.44349213 -342.08615112 618.44948425 -342.90325928 618.45565796 C-352.96695577 618.5063242 -362.49711995 617.69754038 -372.37011719 615.72021484 C-375.49420125 615.10035689 -378.59403321 614.60511772 -381.75 614.1875 C-394.74100025 612.04928558 -407.77078916 607.81584427 -420 603 C-424.33036414 601.3255186 -428.66315082 599.65761787 -433 598 C-434.70542969 597.34451172 -434.70542969 597.34451172 -436.4453125 596.67578125 C-452.24481616 590.79073123 -467.14753209 588.64407792 -484 590 C-484.33 590.33 -484.66 590.66 -485 591 C-486.57757504 591.32135788 -488.16244286 591.60727587 -489.75 591.875 C-493.80481719 592.65035456 -496.53333834 593.71930154 -500 596 C-501.155 596.350625 -502.31 596.70125 -503.5 597.0625 C-512.05824129 600.11086404 -519.79142031 607.60296426 -526 614 C-526.58523438 614.57363281 -527.17046875 615.14726563 -527.7734375 615.73828125 C-531.53159693 619.43227698 -535.03016746 623.26718513 -538.421875 627.30078125 C-540.76311283 629.82166851 -542.63175552 630.9232824 -546 631.625 C-554.46356421 631.35716569 -562.33622981 622.11646644 -567.82421875 616.39453125 C-593.36659176 588.28416383 -609.99569278 552.06372506 -616.359375 514.73828125 C-616.69959155 512.75299318 -617.05076974 510.76832127 -617.48193359 508.80078125 C-619.03577644 501.69090426 -619.65384702 494.63036812 -620.125 487.375 C-620.2084668 486.10462891 -620.29193359 484.83425781 -620.37792969 483.52539062 C-621.54059666 464.53358152 -621.40107956 445.88312103 -619 427 C-618.86577637 425.94377441 -618.73155273 424.88754883 -618.59326172 423.79931641 C-616.25809054 405.93254161 -613.72452392 387.66560276 -607.03515625 370.8203125 C-605.36563654 366.27165879 -604.11041875 361.59638725 -602.83789062 356.92285156 C-601.68681715 352.83331163 -600.28032451 349.61994073 -598 346 C-597.16732238 343.97471314 -596.37780287 341.93131387 -595.625 339.875 C-583.87543384 308.72988134 -564.40924348 280.81350663 -542.1171875 256.33984375 C-540.70984475 254.78449632 -539.31896313 253.21408863 -537.9453125 251.62890625 C-534.22750995 247.33969047 -530.4295162 243.4342305 -526.08984375 239.7734375 C-522.94329037 237.10327818 -519.92245468 234.29465787 -516.8828125 231.50390625 C-515 230 -515 230 -513 230 C-513 229.34 -513 228.68 -513 228 C-510.98046875 226.3359375 -510.98046875 226.3359375 -508.1875 224.375 C-507.17816406 223.66085938 -506.16882813 222.94671875 -505.12890625 222.2109375 C-503.58009766 221.11652344 -503.58009766 221.11652344 -502 220 C-500.20747436 218.66782169 -498.415785 217.33451725 -496.625 216 C-490.6278829 211.64078686 -484.36228655 207.79895276 -478 204 C-477.04480469 203.41347656 -476.08960938 202.82695312 -475.10546875 202.22265625 C-467.30577734 197.51723366 -459.19725137 193.65904752 -450.92138672 189.8828125 C-449.29560009 189.13581829 -447.67979973 188.36714768 -446.06640625 187.59375 C-437.9501319 183.7394462 -429.50756257 180.85384204 -421 178 C-419.96488281 177.65066406 -418.92976562 177.30132812 -417.86328125 176.94140625 C-410.6362584 174.61602239 -403.29362986 172.74093414 -395.9375 170.875 C-394.94419678 170.62105469 -393.95089355 170.36710938 -392.92749023 170.10546875 C-383.36239379 167.72187982 -373.80508992 165.98091197 -363.9609375 165.34375 C-361.44612926 165.05179337 -359.14502666 164.58453167 -356.68359375 164.0234375 C-350.18502073 162.69303985 -343.64226507 162.49499508 -337.03396606 162.22314453 C-319.85096224 161.50443912 -302.70917442 160.31143289 -285.5625 159 C-284.45949554 158.91623108 -283.35649109 158.83246216 -282.22006226 158.74615479 C-270.59814736 157.86129178 -258.98023514 156.93225465 -247.3671875 155.9375 C-245.96292259 155.81858398 -245.96292259 155.81858398 -244.5302887 155.69726562 C-236.15793738 154.96884002 -227.84173707 154.04635441 -219.6875 151.9375 C-216.9728454 151.24733358 -214.68265975 150.82444272 -211.9375 150.5625 C-208.51690585 150.07384369 -206.13656936 149.28162825 -203.05078125 147.8203125 C-200.39839695 146.75935878 -197.71785897 146.1513788 -194.9375 145.5 C-190.58904761 144.47139236 -186.93176661 143.17281839 -183 141 C-182.34 141 -181.68 141 -181 141 C-182.31408101 145.99350785 -184.67405005 149.88572169 -187.359375 154.2265625 C-189.05528555 157.09345891 -190.53835009 160.00746414 -192 163 C-193.83182828 166.73978449 -195.74840421 170.33296172 -197.9375 173.875 C-200.38608957 177.84915061 -202.50768918 181.93777557 -204.5625 186.125 C-205.16196301 187.32071261 -205.76220269 188.5160362 -206.36328125 189.7109375 C-207.33215632 191.65793704 -208.2772637 193.61758402 -209.16796875 195.6015625 C-210.61275185 198.4702654 -211.78895552 200.55145306 -214.89093018 201.70036316 C-224.23046927 203.28801317 -233.66084425 203.77849602 -243.10549164 204.35500526 C-246.36667254 204.55506299 -249.6271087 204.76476366 -252.88751221 204.97709656 C-262.15298041 205.57935309 -271.41917546 206.16931929 -280.68652344 206.74194336 C-305.28828243 208.2678089 -329.6233064 209.79471705 -353.86682129 214.42953491 C-358.39968642 215.25484414 -362.95573755 215.90361994 -367.51727295 216.54902649 C-369.93452744 216.74474468 -369.93452744 216.74474468 -371 218 C-373.581208 218.47122053 -376.15920389 218.90120522 -378.75 219.3125 C-389.01278766 221.03678618 -398.6832895 223.88232047 -408.296875 227.8828125 C-410.31694111 228.71769531 -412.35064473 229.51971813 -414.390625 230.3046875 C-429.97554052 236.30334717 -444.1101483 243.99261717 -458.14453125 253.0234375 C-459.12808594 253.65507812 -460.11164063 254.28671875 -461.125 254.9375 C-461.99382812 255.50339844 -462.86265625 256.06929688 -463.7578125 256.65234375 C-466 258 -466 258 -469 259 C-469 259.66 -469 260.32 -469 261 C-470.43359375 262.2265625 -470.43359375 262.2265625 -472.4375 263.625 C-476.60903919 266.62910309 -480.35602688 269.96187867 -484.1171875 273.4609375 C-486 275 -486 275 -488 275 C-488.33 275.99 -488.66 276.98 -489 278 C-489.70125 278.556875 -490.4025 279.11375 -491.125 279.6875 C-494.1359813 282.10937626 -496.43135657 284.68447996 -498.92578125 287.6171875 C-500.86554123 289.845537 -502.87510693 291.99138232 -504.90820312 294.13427734 C-511.33306387 300.9545485 -516.77279451 308.2352745 -522 316 C-522.38397949 316.56444824 -522.76795898 317.12889648 -523.16357422 317.71044922 C-533.57031814 333.0875783 -541.84500874 349.40037588 -547.8515625 366.9609375 C-549 370 -549 370 -551 373 C-560.64420418 400.0686067 -565.578685 428.58764717 -565.39111328 457.26928711 C-565.37494439 460.19757193 -565.39113058 463.1244891 -565.41015625 466.05273438 C-565.4294676 484.13791003 -563.65092651 502.79440904 -556.87890625 519.7421875 C-555.68885129 522.79930646 -554.63829188 525.90092982 -553.5625 529 C-550.8273692 536.66491746 -547.72575751 543.3544035 -543 550 C-542.071875 551.423125 -542.071875 551.423125 -541.125 552.875 C-539.13448668 555.2237313 -539.13448668 555.2237313 -536.125 555.75 C-530.61780357 554.42827286 -528.37185169 550.13626657 -525.4296875 545.5546875 C-523.9103784 543.05813435 -522.44424877 540.540668 -521 538 C-517.76030881 532.3148645 -514.50131066 526.64232056 -511.1875 521 C-510.69185547 520.13632812 -510.19621094 519.27265625 -509.68554688 518.3828125 C-504.5084675 509.61442582 -498.16287232 501.78283717 -488 499 C-471.71918271 496.79440578 -456.09107412 500.66758047 -441.50390625 507.81640625 C-438.8785976 509.05738678 -436.23989628 510.04045827 -433.5 511 C-429.83622731 512.28548598 -426.32929028 513.72673091 -422.81640625 515.37890625 C-405.31341374 523.40000895 -386.83064812 528.25103115 -368 532 C-367.2687793 532.14695312 -366.53755859 532.29390625 -365.78417969 532.4453125 C-342.92305321 536.82421395 -314.82873032 536.38210151 -295 523 C-294.35933594 522.60039063 -293.71867187 522.20078125 -293.05859375 521.7890625 C-288.32964182 518.44679572 -285.78785819 513.36357457 -284 508 C-283.16691707 502.71897861 -283.17815323 497.87550939 -285.6875 493.0625 C-290.43722012 486.77233011 -295.91850386 484.10192665 -303.47460938 482.46337891 C-308.19183324 481.84334491 -312.81505172 481.91692772 -317.56640625 481.97265625 C-319.68424301 481.98532711 -321.80208166 481.99768618 -323.91992188 482.00976562 C-327.21677728 482.03429471 -330.51353046 482.06199569 -333.81030273 482.09594727 C-371.51730473 482.45914706 -410.73368943 478.94063798 -439.5 451.8125 C-446.243843 444.83285829 -452.15508362 436.92744447 -456 428 C-456.31122803 427.2989917 -456.62245605 426.5979834 -456.94311523 425.87573242 C-463.54368672 410.33014195 -466.5259741 391.84007549 -465 375 C-464.93280762 374.21995605 -464.86561523 373.43991211 -464.79638672 372.63623047 C-462.63086782 350.01611832 -453.71320469 330.27874248 -439 313 C-438.33484375 312.15050781 -437.6696875 311.30101562 -436.984375 310.42578125 C-423.19139244 293.56467462 -400.54467925 281.78911108 -379.97265625 275.859375 C-377.98275185 275.28410697 -376.00645611 274.65961922 -374.046875 273.98828125 C-369.67496879 272.57021424 -365.21745505 271.66211167 -360.73046875 270.68359375 C-358.10307474 270.27447711 -358.10307474 270.27447711 -357 269 C-354.80021135 268.61428363 -352.58899719 268.29336609 -350.375 268 C-349.16585938 267.835 -347.95671875 267.67 -346.7109375 267.5 C-321.42837921 264.59204695 -295.29852022 264.53620316 -270.125 268.25 C-269.07076843 268.40363007 -269.07076843 268.40363007 -267.99523926 268.56036377 C-259.05694338 269.8942374 -250.35142356 271.80201419 -241.61083984 274.07226562 C-236.42857079 275.40374787 -231.207 276.5123339 -225.96875 277.59765625 C-222.36912999 278.36991515 -219.21895997 279.20678942 -216 281 C-208.93479512 283.19264979 -201.0190994 284.91800611 -194.125 281.375 C-188.45325927 277.06447704 -186.55407345 272.63749156 -185.5859375 265.6875 C-185.48536041 264.99672363 -185.38478333 264.30594727 -185.28115845 263.59423828 C-184.96473524 261.39791445 -184.6694753 259.19936238 -184.375 257 C-184.17067656 255.55579001 -183.96495761 254.11177673 -183.7578125 252.66796875 C-182.97134879 247.1494539 -182.21892355 241.62649298 -181.4753418 236.10205078 C-180.62482301 229.91503265 -179.65858251 223.91319167 -178.0625 217.875 C-177.70537243 216.51311433 -177.3486039 215.15113446 -176.9921875 213.7890625 C-176.66476562 212.53867188 -176.33734375 211.28828125 -176 210 C-175.56234409 208.08336893 -175.12483266 206.16670486 -174.6875 204.25 C-172.45635447 195.30089979 -169.15843995 186.65459223 -166 178 C-165.649375 177.02804688 -165.29875 176.05609375 -164.9375 175.0546875 C-158.12359424 157.10734644 -147.97001427 139.68895895 -137 124 C-136.41001221 123.15308594 -136.41001221 123.15308594 -135.80810547 122.2890625 C-129.11786446 112.7099132 -122.3912831 103.18150103 -114 95 C-112.72366804 93.54647662 -111.45343616 92.08758644 -110.1875 90.625 C-107.05603675 87.07873471 -103.8051161 83.9295442 -100.1953125 80.87890625 C-97.59011567 78.64919152 -95.08175717 76.32627786 -92.5625 74 C-79.38818807 62 -79.38818807 62 -76 62 C-76 61.34 -76 60.68 -76 60 C-74.12890625 58.484375 -74.12890625 58.484375 -71.5625 56.75 C-70.65628906 56.13511719 -69.75007812 55.52023438 -68.81640625 54.88671875 C-67.42228516 53.95279297 -67.42228516 53.95279297 -66 53 C-65.14277344 52.40832031 -64.28554688 51.81664062 -63.40234375 51.20703125 C-57.25668052 47 -57.25668052 47 -55 47 C-55 46.34 -55 45.68 -55 45 C-52.92295413 43.53848743 -50.85161568 42.19622902 -48.6875 40.875 C-26.43010209 27.13473167 -26.43010209 27.13473167 -7.75 9.1875 C-6.296875 7.35546875 -6.296875 7.35546875 -5 6 C-4.34 6 -3.68 6 -3 6 C-2.690625 5.195625 -2.38125 4.39125 -2.0625 3.5625 C-1 1 -1 1 0 0 Z " fill="#0F5418" transform="translate(767,17)"/>
<path d="M0 0 C1.41687119 4.25061356 0.19320039 6.71851625 -1 11 C-0.34 11 0.32 11 1 11 C0.67 12.32 0.34 13.64 0 15 C-0.66 15 -1.32 15 -2 15 C-2.33 22.92 -2.66 30.84 -3 39 C-3.33 39 -3.66 39 -4 39 C-5.01331719 10.02663438 -5.01331719 10.02663438 0 0 Z " fill="#77926A" transform="translate(306,370)"/>
<path d="M0 0 C-0.92683594 0.20496094 -1.85367187 0.40992188 -2.80859375 0.62109375 C-4.00613281 0.89050781 -5.20367187 1.15992188 -6.4375 1.4375 C-8.22994141 1.83775391 -8.22994141 1.83775391 -10.05859375 2.24609375 C-12.8704686 2.70066748 -12.8704686 2.70066748 -14 4 C-15.80429123 4.28671723 -17.61966002 4.50547961 -19.4375 4.6875 C-20.42621094 4.79449219 -21.41492188 4.90148437 -22.43359375 5.01171875 C-25 5 -25 5 -27 3 C-24.47952208 2.51890037 -21.9586463 2.04007397 -19.4375 1.5625 C-18.73302734 1.42779297 -18.02855469 1.29308594 -17.30273438 1.15429688 C-3.85266695 -1.3869601 -3.85266695 -1.3869601 0 0 Z " fill="#507448" transform="translate(494,697)"/>
<path d="M0 0 C0.33 0.99 0.66 1.98 1 3 C-6.11389522 10.66742597 -6.11389522 10.66742597 -11 12 C-8.01665146 6.98797445 -4.56048012 3.61251516 0 0 Z " fill="#265526" transform="translate(339,319)"/>
<path d="M0 0 C0.99 0.33 1.98 0.66 3 1 C-0.73005164 4.9964839 -3.79638905 7.98951395 -9 10 C-9.66 9.67 -10.32 9.34 -11 9 C-6.25 5 -6.25 5 -4 5 C-4 4.34 -4 3.68 -4 3 C-2.1875 1.3125 -2.1875 1.3125 0 0 Z " fill="#2F5B2E" transform="translate(187,822)"/>
<path d="M0 0 C0.33 0.99 0.66 1.98 1 3 C-1.64 5.64 -4.28 8.28 -7 11 C-7.66 10.34 -8.32 9.68 -9 9 C-6.03 6.03 -3.06 3.06 0 0 Z " fill="#295729" transform="translate(674,91)"/>
<path d="M0 0 C0.66 0.33 1.32 0.66 2 1 C-0.64 3.64 -3.28 6.28 -6 9 C-6.99 8.67 -7.98 8.34 -9 8 C-6.03 5.36 -3.06 2.72 0 0 Z " fill="#225123" transform="translate(757,29)"/>
<path d="M0 0 C0.66 0.33 1.32 0.66 2 1 C0.50079488 4.11373372 -1.08152136 7.12228205 -3 10 C-3.66 10 -4.32 10 -5 10 C-4.38545304 6.00544473 -2.29353263 3.25533664 0 0 Z " fill="#2B582C" transform="translate(628,144)"/>
<path d="M0 0 C0.99 0.33 1.98 0.66 3 1 C-0.07999946 4.67230705 -2.2482602 5.56802365 -7 6 C-4.8322078 3.72381819 -2.67272281 1.67045176 0 0 Z " fill="#275728" transform="translate(733,48)"/>
<path d="M0 0 C0.66 0.33 1.32 0.66 2 1 C-0.97 3.97 -3.94 6.94 -7 10 C-7 6.04435836 -5.59478606 4.89133304 -3 2 C-2.01 1.34 -1.02 0.68 0 0 Z " fill="#E0E6D4" transform="translate(409,374)"/>
<path d="M0 0 C0 0.66 0 1.32 0 2 C-2.25 3.75 -2.25 3.75 -5 5 C-7.3125 4.1875 -7.3125 4.1875 -9 3 C-2.25 0 -2.25 0 0 0 Z " fill="#3B6537" transform="translate(538,682)"/>
<path d="M0 0 C0 0.99 0 1.98 0 3 C-2 4.6875 -2 4.6875 -4 6 C-4.66 5.34 -5.32 4.68 -6 4 C-4.02 2.68 -2.04 1.36 0 0 Z " fill="#2E5D2D" transform="translate(710,64)"/>
</svg>
